HIERARCHY
ROOT ROOT
{
	OFFSET 0.000000 56.020000 -5.659234
	CHANNELS 6 Xposition Yposition Zposition Xrotation Yrotation Zrotation 
	JOINT C_spine0001_bind_JNT
	{
		OFFSET 0.000000 1.618999 0.000000
		CHANNELS 3 Xrotation Yrotation Zrotation
		JOINT C_spine0002_bind_JNT
		{
			OFFSET 0.000000 4.942001 0.000001
			CHANNELS 3 Xrotation Yrotation Zrotation
			JOINT C_spine0003_bind_JNT
			{
				OFFSET 0.000000 4.942001 -0.000000
				CHANNELS 3 Xrotation Yrotation Zrotation
				JOINT C_neck0001_bind_JNT
				{
					OFFSET 0.000000 17.026009 -0.000000
					CHANNELS 3 Xrotation Yrotation Zrotation
					JOINT C_neck0002_bind_JNT
					{
						OFFSET 0.000000 3.249985 0.000000
						CHANNELS 3 Xrotation Yrotation Zrotation
						JOINT C_head_bind_JNT
						{
							OFFSET 0.000000 5.278008 0.000000
							CHANNELS 3 Xrotation Yrotation Zrotation
							End Site
							{
								OFFSET 0.000000 0.000000 0.000000
							}
						}
					}
				}
				JOINT L_clavicle_bind_JNT
				{
					OFFSET 4.590000 12.067001 0.834000
					CHANNELS 3 Xrotation Yrotation Zrotation
					JOINT L_armUpper0001_bind_JNT
					{
						OFFSET 7.812635 0.512001 -3.452945
						CHANNELS 3 Xrotation Yrotation Zrotation
						JOINT L_armLower0001_bind_JNT
						{
							OFFSET 15.265892 -6.552116 -0.058157
							CHANNELS 3 Xrotation Yrotation Zrotation
							JOINT L_hand0001_bind_JNT
							{
								OFFSET 14.747667 -6.369995 5.049225
								CHANNELS 3 Xrotation Yrotation Zrotation
								End Site
								{
									OFFSET 0.000000 0.000000 0.000000
								}
							}
						}
					}
				}
				JOINT R_clavicle_bind_JNT
				{
					OFFSET -4.590000 12.067001 0.834000
					CHANNELS 3 Xrotation Yrotation Zrotation
					JOINT R_armUpper0001_bind_JNT
					{
						OFFSET -7.812635 0.512001 -3.452945
						CHANNELS 3 Xrotation Yrotation Zrotation
						JOINT R_armLower0001_bind_JNT
						{
							OFFSET -15.265890 -6.552124 -0.058160
							CHANNELS 3 Xrotation Yrotation Zrotation
							JOINT R_hand0001_bind_JNT
							{
								OFFSET -14.746784 -6.369629 5.048937
								CHANNELS 3 Xrotation Yrotation Zrotation
								End Site
								{
									OFFSET 0.000000 0.000000 0.000000
								}
							}
						}
					}
				}
			}
		}
	}
	JOINT C_pelvis0001_bind_JNT
	{
		OFFSET -0.000000 0.000000 0.000000
		CHANNELS 3 Xrotation Yrotation Zrotation
		JOINT L_legUpper0001_bind_JNT
		{
			OFFSET 6.599999 -6.027000 0.539000
			CHANNELS 3 Xrotation Yrotation Zrotation
			JOINT L_legLower0001_bind_JNT
			{
				OFFSET -0.140713 -19.187443 0.040261
				CHANNELS 3 Xrotation Yrotation Zrotation
				JOINT L_foot0001_bind_JNT
				{
					OFFSET -0.132215 -18.028637 -1.138370
					CHANNELS 3 Xrotation Yrotation Zrotation
					JOINT L_foot0002_bind_JNT
					{
						OFFSET 0.007014 -4.693133 9.886524
						CHANNELS 3 Xrotation Yrotation Zrotation
						End Site
						{
							OFFSET 0.000000 0.000000 0.000000
						}
					}
				}
			}
		}
		JOINT R_legUpper0001_bind_JNT
		{
			OFFSET -6.599999 -6.027000 0.539000
			CHANNELS 3 Xrotation Yrotation Zrotation
			JOINT R_legLower0001_bind_JNT
			{
				OFFSET 0.140710 -19.187164 0.040550
				CHANNELS 3 Xrotation Yrotation Zrotation
				JOINT R_foot0001_bind_JNT
				{
					OFFSET 0.132215 -18.028633 -1.138362
					CHANNELS 3 Xrotation Yrotation Zrotation
					JOINT R_foot0002_bind_JNT
					{
						OFFSET -0.007014 -4.693128 9.886505
						CHANNELS 3 Xrotation Yrotation Zrotation
						End Site
						{
							OFFSET 0.000000 0.000000 0.000000
						}
					}
				}
			}
		}
	}
}
MOTION
Frames: 14
Frame Time: 0.033333
44.942097 43.541725 75.109108 0.053798 38.593437 -0.080825 15.776011 -30.416180 6.795096 -2.980415 2.063708 2.019957 5.976265 2.474638 2.051509 19.317074 1.428705 -0.271624 0.567533 0.104121 0.176393 -1.609750 3.247390 -0.893826 5.431823 4.841357 17.295605 -10.803782 24.943403 -60.760902 -16.732649 29.190290 14.108609 3.450146 -16.883526 -27.123777 9.867355 -8.308622 -16.002438 -7.279135 -8.686962 63.688622 -15.661191 -13.811134 4.967175 -4.175728 15.635464 23.622995 12.278902 -33.901936 4.166586 -60.252537 3.267284 27.078991 21.846455 -0.879484 -5.665537 12.217770 -0.839667 -3.774083 -2.803239 -0.907081 -2.291911 -1.542411 -8.687629 -21.230873 33.245438 2.468470 0.291229 -16.265615 3.887930 18.240993 -23.167936 -0.342490 3.891641
46.195503 43.244411 76.542198 0.044390 39.236752 -0.066860 16.908716 -31.236029 5.492319 -2.483675 2.228900 1.143628 6.074911 2.999549 1.528365 19.022738 1.419156 0.572585 0.427493 0.218801 0.262554 -1.954042 3.237991 0.749871 5.259435 5.568712 18.067028 -14.637165 22.129633 -59.335770 -14.860348 29.390917 12.487882 2.942181 -16.748848 -26.329100 10.223745 -8.335401 -17.590406 -3.856761 -9.595061 66.946701 -16.200775 -13.251718 5.340627 -3.954235 15.361278 23.896729 12.808146 -34.474670 3.228378 -61.107071 4.196129 27.196312 25.252373 -2.870720 -4.908079 8.477448 0.637838 -2.861737 -2.828901 -1.004369 -1.751173 -1.214528 -8.550224 -21.276266 31.590744 2.332637 0.468486 -9.742162 5.426856 18.151190 -27.492933 -1.322654 5.687566
47.291702 43.349709 77.780159 0.045548 39.538044 -0.078861 18.075092 -31.582010 3.959028 -2.358404 2.032081 1.051942 6.396740 3.135873 0.855876 18.766964 1.742178 0.986333 0.361217 0.149718 0.096462 -2.531368 3.438171 2.079780 4.627439 6.700184 18.833677 -17.590012 18.020081 -58.850906 -13.008550 28.346596 9.432446 2.332880 -15.881220 -25.224524 10.457928 -8.455726 -18.630150 -1.947182 -9.815869 69.048706 -16.399780 -12.926840 5.933785 -3.264745 14.207692 24.084696 14.140542 -34.290688 2.949389 -61.390938 4.823988 26.893078 27.654873 -3.730099 -4.311240 5.741705 0.933395 -1.643979 -3.662976 -1.291191 -2.003073 -3.572510 -8.453090 -21.470886 33.034821 1.988735 0.194120 -3.095283 7.477771 18.866125 -29.403488 -0.510404 6.234122
48.379234 43.409817 78.594261 0.048506 39.681438 -0.078595 18.923094 -32.253601 3.025912 -2.277274 2.008311 0.767673 6.352845 3.050060 0.363196 18.824591 2.129062 1.432958 0.241814 0.256702 -0.000483 -2.856256 3.508051 2.616474 4.745994 7.971308 19.957249 -21.644999 13.991447 -58.619877 -10.841255 25.819138 5.191979 2.917410 -14.163357 -23.623480 10.978186 -8.377457 -19.808365 -0.855112 -9.565331 71.301666 -16.499954 -12.419774 6.645995 -3.152727 13.539791 23.461462 15.597073 -34.615040 3.376775 -61.322659 5.524514 26.772846 28.422935 -4.196315 -4.636180 4.127418 1.662760 -0.669786 -3.783853 -1.282515 -1.940177 -5.411192 -7.741285 -22.536556 33.386448 2.053409 -0.247049 2.695219 8.539356 18.713886 -26.230267 0.223665 7.337110
49.233463 43.826767 79.119148 0.052416 39.484413 -0.074736 19.716505 -32.906563 1.979434 -2.717168 1.807634 0.887605 6.401281 3.263778 0.275154 18.866503 2.255437 1.354085 0.216607 0.131717 0.180113 -3.316139 4.285457 3.034534 4.838486 8.553638 20.185343 -25.330135 10.155323 -57.421570 -9.168609 22.399673 0.313197 3.539030 -12.351795 -22.403585 10.702205 -9.041230 -20.910133 -0.199205 -8.758496 72.417236 -16.625952 -11.415623 7.798187 -2.782503 12.843512 23.167150 16.547844 -34.784664 2.848032 -61.074379 5.627089 26.402256 27.923016 -4.436345 -4.061455 4.055386 2.218508 -0.641987 -4.306548 -0.806343 -2.009029 -7.002393 -7.705864 -22.010567 34.471039 1.722721 -0.700377 4.904952 9.324433 18.460052 -20.045406 1.437618 7.546631
49.901188 44.286236 79.649979 0.036532 39.136635 -0.066851 19.823820 -33.614571 1.085398 -2.738897 1.806780 0.783612 6.659777 3.315151 -0.274907 18.432369 2.670340 1.661887 0.312972 0.048863 -0.134153 -3.724783 4.788768 3.051775 4.481149 8.679741 19.808044 -29.130136 6.893446 -55.777878 -8.659771 19.126150 -3.000756 4.621595 -11.099089 -21.404060 10.174505 -9.192879 -21.176647 0.016587 -8.453279 73.114273 -16.799150 -10.119932 9.181883 -2.394133 12.077355 22.253628 17.284185 -35.081070 2.251812 -60.642807 5.448236 27.214861 27.461624 -4.479140 -4.484930 4.081480 2.388986 -0.540010 -4.986442 -0.917571 -1.833447 -7.662107 -7.375402 -21.809212 34.951530 1.448937 -0.208220 4.456611 9.561258 18.062756 -14.477338 2.251805 7.373911
50.828121 45.125671 80.235405 0.073686 39.344593 -0.092428 19.932529 -34.736481 0.848655 -3.049674 1.492519 0.763584 6.683339 2.958742 -0.469719 18.397755 3.186505 1.532279 0.222412 0.106778 -0.076718 -3.810302 5.213448 3.355830 4.553079 8.764120 19.042225 -32.214928 4.846149 -54.295177 -9.614186 17.096506 -4.659442 5.544251 -11.054373 -21.180124 9.648500 -8.965950 -21.206484 0.114426 -8.190922 72.866615 -16.551109 -8.705230 10.477695 -2.352271 11.623081 21.524649 17.976444 -36.149094 1.620728 -59.375500 5.474561 27.516968 26.172966 -4.388888 -4.350337 4.198958 2.839410 -0.531984 -5.982749 -0.602253 -1.833992 -9.292410 -6.890932 -21.126009 35.026371 1.516130 0.086699 4.305862 9.350400 18.115347 -11.512269 2.631858 6.975196
51.625111 45.782547 80.900627 0.052749 39.325619 -0.073888 19.589094 -35.838882 0.555243 -3.192416 1.302911 0.677005 6.583893 2.961068 -0.657921 18.406322 3.329664 1.492573 0.202406 -0.004480 -0.023643 -3.309607 6.038922 2.810116 4.425592 8.390140 17.791456 -34.784306 2.731380 -52.529785 -10.762240 15.522642 -5.867141 6.117285 -10.806986 -21.014044 9.098848 -8.947405 -20.743462 0.295613 -8.271988 72.166054 -16.506113 -7.153157 12.097542 -2.421198 11.790953 21.096087 18.222672 -36.940086 0.925661 -58.219204 6.001341 28.211573 25.577305 -4.508668 -4.655953 3.963265 2.965843 -0.235899 -6.849006 -0.698386 -1.611312 -10.176589 -6.421482 -20.325645 34.561913 0.634877 1.143895 4.147584 9.405098 17.656677 -10.844817 2.342923 6.163337
52.422947 46.310429 81.513786 0.073438 38.973328 -0.099227 18.823298 -36.640640 0.291246 -3.332651 1.160416 0.697495 6.584909 2.774881 -0.669529 18.361267 3.574564 1.458101 0.332206 -0.021159 -0.133830 -3.416820 6.210914 2.695694 4.050200 7.786035 17.039196 -36.374153 1.744058 -51.001392 -11.332782 14.536720 -6.373077 6.332170 -10.685642 -21.380312 8.683801 -8.751665 -20.414701 0.317437 -8.906939 71.698097 -16.515673 -5.458553 13.106238 -2.412848 11.487715 20.924103 18.017216 -37.597538 0.566949 -56.543858 6.620483 28.504194 25.366940 -4.409406 -5.033910 2.799797 2.938775 -0.005271 -7.199141 -0.540428 -1.437812 -11.635019 -6.283552 -20.061901 33.900471 0.146475 1.555965 3.993751 8.483932 17.543556 -10.056298 2.241405 6.161887
53.145664 46.716988 82.115089 0.059688 38.226208 -0.084945 18.172476 -37.178276 0.361369 -3.399862 0.892190 0.751601 6.415000 2.814065 -0.764125 18.375504 3.853915 1.198903 0.308906 0.102482 -0.246461 -3.507658 6.499360 2.355169 3.660522 7.206377 16.102856 -37.630516 0.469723 -49.360916 -11.925747 14.058773 -7.080937 6.151523 -10.647831 -21.328592 8.110102 -9.095204 -19.934193 0.158169 -9.036505 70.920563 -16.382277 -3.912936 13.816052 -2.807058 11.399089 21.178831 17.469437 -37.897442 0.272840 -54.963017 7.201432 28.225269 25.959248 -3.986016 -5.297327 1.539366 3.133113 0.258646 -7.644183 -0.492066 -1.316183 -13.326464 -6.474129 -19.841827 33.764778 -0.576263 1.512467 3.269684 8.132823 17.178925 -9.270040 1.881643 6.192060
53.696671 46.989391 82.670982 0.071986 38.120529 -0.088534 17.270243 -38.099556 0.483677 -3.640279 0.770330 0.957883 6.486069 2.477618 -0.737427 18.347811 4.065327 0.945075 0.235315 0.056749 -0.071765 -3.099185 6.979631 2.062602 2.895283 6.843029 15.461451 -37.987251 0.201428 -48.299614 -12.271342 13.566476 -6.681045 6.004471 -10.148028 -21.303154 7.503263 -8.823206 -19.313711 0.333136 -9.996076 70.058113 -16.578791 -2.928327 14.095414 -2.788712 11.399636 21.093443 16.587627 -38.748062 0.245693 -53.082039 8.250444 28.292053 26.211098 -3.786168 -5.361500 0.329024 3.311451 0.168957 -8.029319 -0.524358 -1.194110 -14.788011 -6.727445 -19.874344 33.222740 -0.608516 1.587569 2.058646 7.226434 17.285418 -8.336330 1.528365 6.013589
54.217682 47.237938 83.227089 0.052623 37.292316 -0.073879 16.493898 -38.423389 0.921445 -3.709318 0.592391 1.155500 6.138079 2.429735 -0.609312 18.429998 4.316240 0.716525 0.406892 0.068573 -0.294422 -3.544872 7.491658 1.699051 2.631817 6.018870 14.711315 -38.565517 0.468292 -46.568523 -12.673466 14.285251 -6.867080 6.125362 -10.695120 -20.926149 7.294133 -8.947433 -18.704243 0.086484 -10.400870 69.061958 -16.934326 -2.335554 13.953503 -2.897784 11.032999 21.443050 15.669418 -39.000324 0.121298 -51.679123 9.176829 28.148628 27.319756 -3.485769 -5.379863 -0.835206 3.470647 0.099412 -8.582318 -0.342189 -1.174678 -16.285896 -7.668556 -19.735643 32.231228 -0.582074 1.430978 1.278682 6.884743 17.537441 -7.661828 1.421919 5.148517
54.585098 47.416508 83.665459 0.062990 36.687813 -0.067267 15.559288 -38.861767 1.582966 -3.865691 0.586593 1.176404 6.135556 2.311018 -0.568730 18.538954 4.596598 0.650164 0.237968 0.041247 -0.261956 -3.140882 7.924299 1.402289 1.784788 5.547053 14.490247 -38.572773 1.066434 -45.478363 -12.385657 14.023995 -6.806892 6.161888 -10.607702 -20.659189 6.736244 -8.935578 -18.147034 0.469368 -11.165054 68.215858 -17.031616 -1.786149 13.744752 -2.909719 10.811072 21.453091 14.397263 -39.366589 0.036320 -49.776440 10.345041 27.922752 27.326920 -2.902236 -5.702029 -1.578313 3.752475 0.218169 -8.981525 -0.285766 -1.057599 -17.445652 -7.901393 -19.481112 30.792486 -0.692780 1.349882 0.173871 6.320144 18.251385 -7.232659 1.100256 4.254530
54.919594 47.539646 84.192970 0.062364 36.511166 -0.080967 14.795249 -39.703373 2.510957 -3.924778 0.402710 1.339217 5.882866 2.190269 -0.235013 18.737076 4.864838 0.264506 0.420595 0.028197 -0.451542 -3.069206 8.393318 0.977489 1.595588 5.332087 14.065465 -38.855453 1.949986 -44.175224 -12.072205 14.464619 -6.680319 6.424128 -11.601686 -20.520514 6.516686 -9.055731 -17.729271 0.449151 -11.670500 67.198380 -17.246990 -1.634854 13.337437 -2.956175 10.105835 22.013376 13.583321 -40.127647 0.269182 -48.397022 11.803206 27.769693 27.761883 -2.746486 -5.825623 -2.068047 4.018507 0.251241 -9.569648 -0.124417 -0.908805 -18.530554 -8.984426 -19.029245 29.178297 -0.623117 1.153118 0.004154 6.397858 18.681261 -7.942363 1.376300 3.217084
